<svg xmlns="http://www.w3.org/2000/svg" width="24" height="24" fill="none"><path fill="#fff" d="M12 2.25a.75.75 0 0 0-.75.75v5.25A.75.75 0 0 0 12 9a3 3 0 1 1-2.598 1.5.75.75 0 0 0-.275-1.025L4.58 6.85a.75.75 0 0 0-1.025.275A9.75 9.75 0 1 0 12 2.25ZM4.51 8.54l3.273 1.89a4.509 4.509 0 0 0-.261 1.994l-3.65.982a8.265 8.265 0 0 1 .638-4.865Zm-.25 6.31 3.656-.978a4.51 4.51 0 0 0 3.335 2.564v3.78a8.268 8.268 0 0 1-6.992-5.365Zm8.491 5.365v-3.779a4.5 4.5 0 0 0 0-8.873v-3.78a8.25 8.25 0 0 1 0 16.432Z"/></svg>