<svg xmlns="http://www.w3.org/2000/svg" width="24" height="24" fill="none"><path fill="#2433FF" d="M22.95 14.1a.75.75 0 0 1-1.05-.15A4.837 4.837 0 0 0 18 12a.75.75 0 1 1 0-1.5 2.25 2.25 0 1 0-2.178-2.813.75.75 0 1 1-1.454-.375 3.75 3.75 0 1 1 6.164 3.705 6.37 6.37 0 0 1 2.571 2.032.75.75 0 0 1-.153 1.051Zm-5.05 5.775a.75.75 0 1 1-1.297.75 5.344 5.344 0 0 0-9.203 0 .75.75 0 1 1-1.297-.75 6.756 6.756 0 0 1 3.163-2.805 4.5 4.5 0 1 1 5.47 0 6.756 6.756 0 0 1 3.164 2.805ZM12 16.5a3 3 0 1 0 0-6.001 3 3 0 0 0 0 6.001Zm-5.25-5.25A.75.75 0 0 0 6 10.5a2.25 2.25 0 1 1 2.18-2.813.75.75 0 1 0 1.453-.375 3.75 3.75 0 1 0-6.163 3.705A6.37 6.37 0 0 0 .9 13.049a.75.75 0 0 0 1.2.901A4.837 4.837 0 0 1 6 12a.75.75 0 0 0 .75-.75Z"/></svg>