<svg xmlns="http://www.w3.org/2000/svg" width="24" height="24" fill="none"><path fill="#fff" d="M16.5 21.75a.75.75 0 0 1-.75.75h-7.5a.75.75 0 0 1 0-1.5h7.5a.75.75 0 0 1 .75.75Zm3.75-12a8.208 8.208 0 0 1-3.154 6.488 1.522 1.522 0 0 0-.596 1.2V18a1.5 1.5 0 0 1-1.5 1.5H9A1.5 1.5 0 0 1 7.5 18v-.563a1.5 1.5 0 0 0-.584-1.186A8.212 8.212 0 0 1 3.75 9.797c-.024-4.47 3.587-8.19 8.051-8.297a8.25 8.25 0 0 1 8.449 8.25Zm-1.5 0A6.749 6.749 0 0 0 11.837 3C8.18 3.086 5.23 6.13 5.25 9.787a6.716 6.716 0 0 0 2.591 5.278A3 3 0 0 1 9 17.438V18h2.25v-4.19l-2.78-2.78a.75.75 0 0 1 1.06-1.06L12 12.44l2.47-2.47a.75.75 0 0 1 1.06 1.06l-2.78 2.78V18H15v-.563a3.011 3.011 0 0 1 1.17-2.376 6.717 6.717 0 0 0 2.58-5.311Z"/></svg>