<svg xmlns="http://www.w3.org/2000/svg" width="24" height="24" fill="none"><path fill="#2433FF" d="M23.25 7.5a2.624 2.624 0 0 0-5.103-.868 2.626 2.626 0 0 0 .31 2.346l-2.511 3.094-2.259-5.19a2.625 2.625 0 1 0-3.38 0l-2.253 5.187-2.512-3.093A2.625 2.625 0 1 0 3.048 10.1l1.358 8.146a1.5 1.5 0 0 0 1.48 1.253h12.228a1.5 1.5 0 0 0 1.48-1.253l1.356-8.143a2.625 2.625 0 0 0 2.3-2.604ZM12 3.75A1.125 1.125 0 1 1 12 6a1.125 1.125 0 0 1 0-2.25ZM2.25 7.5a1.125 1.125 0 1 1 2.25 0 1.125 1.125 0 0 1-2.25 0ZM18.114 18H5.885L4.58 10.174l3.088 3.795a.75.75 0 0 0 1.035.13.75.75 0 0 0 .235-.3l2.747-6.319c.209.027.42.027.63 0l2.747 6.32a.75.75 0 0 0 1.27.169l3.087-3.799L18.114 18Zm2.51-9.375a1.125 1.125 0 1 1 0-2.25 1.125 1.125 0 0 1 0 2.25Z"/></svg>