<svg xmlns="http://www.w3.org/2000/svg" width="24" height="24" fill="none"><path fill="#2433FF" d="m18.523 12.1-4.835-1.787-1.782-4.84a1.493 1.493 0 0 0-2.801 0l-1.792 4.84-4.84 1.78a1.492 1.492 0 0 0 0 2.802l4.84 1.793 1.78 4.839a1.493 1.493 0 0 0 2.802 0l1.793-4.84 4.839-1.78a1.492 1.492 0 0 0 0-2.802l-.004-.006Zm-5.68 3.296a.75.75 0 0 0-.444.444L10.5 20.986l-1.896-5.142a.75.75 0 0 0-.448-.448L3.014 13.5l5.142-1.896a.75.75 0 0 0 .448-.448L10.5 6.014l1.896 5.142a.748.748 0 0 0 .444.445l5.146 1.899-5.142 1.896ZM13.5 3.75a.75.75 0 0 1 .75-.75h1.5V1.5a.75.75 0 1 1 1.5 0V3h1.5a.75.75 0 0 1 0 1.5h-1.5V6a.75.75 0 1 1-1.5 0V4.5h-1.5a.75.75 0 0 1-.75-.75Zm9.75 4.5a.75.75 0 0 1-.75.75h-.75v.75a.75.75 0 1 1-1.5 0V9h-.75a.75.75 0 1 1 0-1.5h.75v-.75a.75.75 0 1 1 1.5 0v.75h.75a.75.75 0 0 1 .75.75Z"/></svg>