<svg xmlns="http://www.w3.org/2000/svg" width="32" height="32" fill="none"><path fill="#2433FF" fill-rule="evenodd" d="M20.942 7.53c.28-.656.436-1.381.436-2.143C21.378 2.412 19.003 0 16.072 0c-2.93 0-5.307 2.412-5.307 5.387 0 .762.156 1.487.437 2.144a5.275 5.275 0 0 0-4.296-2.224c-2.93 0-5.306 2.411-5.306 5.386 0 2.658 1.895 4.865 4.388 5.307-2.493.442-4.388 2.65-4.388 5.307 0 2.975 2.375 5.386 5.306 5.386a5.275 5.275 0 0 0 4.296-2.224 5.437 5.437 0 0 0-.437 2.144c0 2.975 2.376 5.387 5.307 5.387 2.93 0 5.306-2.412 5.306-5.387a5.44 5.44 0 0 0-.436-2.144 5.275 5.275 0 0 0 4.296 2.224c2.93 0 5.306-2.411 5.306-5.386 0-2.658-1.895-4.865-4.388-5.307 2.493-.442 4.388-2.65 4.388-5.306 0-2.976-2.375-5.387-5.306-5.387a5.275 5.275 0 0 0-4.296 2.224Zm-.574 15.92a5.44 5.44 0 0 1-.437-2.143c0-2.658 1.895-4.865 4.388-5.307-2.493-.442-4.388-2.65-4.388-5.306 0-.762.156-1.487.437-2.144a5.275 5.275 0 0 1-4.296 2.224 5.275 5.275 0 0 1-4.296-2.224c.28.657.437 1.382.437 2.143 0 2.658-1.895 4.865-4.388 5.307 2.493.442 4.388 2.65 4.388 5.307 0 .762-.156 1.486-.437 2.143a5.276 5.276 0 0 1 4.296-2.224c1.767 0 3.332.877 4.296 2.224Z" clip-rule="evenodd"/></svg>